# xmcd
#
# Track frame offsets:
#	182
#	8852
#	10307
#	23055
#	30160
#	61880
#	73020
#	83040
#	93162
#	110562
#	122995
#	154710
#	164842
#	185920
#
# Disc length: 2588 seconds
#
# Revision: 1
# Processed by: cddbd v1.4PL0 Copyright (c) Steve Scherf et al.
# Submitted via: audiograbber 1.81.02
#
DISCID=b00a1a0e
DTITLE=Waddie Mitchell - Lone Driftin' Rider
DYEAR=1992
DGENRE=
TTITLE0=Lone Driftin' Rider
TTITLE1=Introduction Of Waddie Mitchell
TTITLE2=The Whole Load
TTITLE3=Waddie Talks About His Cowboy Life And Poetry
TTITLE4=Cat-Tastrophy
TTITLE5=A Story With A Moral
TTITLE6=Brahma Steer
TTITLE7=Thanksgiving Day Argument
TTITLE8=The Riders
TTITLE9=Judgement Day
TTITLE10=When They've Finished Shipping Cattle In The Fall
TTITLE11=What Will I Tell Him
TTITLE12=You Haven't Sold Your Saddle Yet
TTITLE13=Lone Driftin' Rider (Reprise)
EXTD=
EXTT0=
EXTT1=
EXTT2=
EXTT3=
EXTT4=
EXTT5=
EXTT6=
EXTT7=
EXTT8=
EXTT9=
EXTT10=
EXTT11=
EXTT12=
EXTT13=
PLAYORDER=
